<svg id="visual" viewBox="0 0 900 600" width="900" height="600" xmlns="http://www.w3.org/2000/svg" xmlns:xlink="http://www.w3.org/1999/xlink" version="1.1"><rect x="0" y="0" width="900" height="600" fill="#001220"></rect><defs><linearGradient id="grad1_0" x1="33.3%" y1="0%" x2="100%" y2="100%"><stop offset="20%" stop-color="#001220" stop-opacity="1"></stop><stop offset="80%" stop-color="#001220" stop-opacity="1"></stop></linearGradient></defs><defs><linearGradient id="grad2_0" x1="0%" y1="0%" x2="66.7%" y2="100%"><stop offset="20%" stop-color="#001220" stop-opacity="1"></stop><stop offset="80%" stop-color="#001220" stop-opacity="1"></stop></linearGradient></defs><g transform="translate(900, 0)"><path d="M0 324.5C-46 323.6 -91.9 322.6 -124.2 299.8C-156.4 277 -174.9 232.2 -199.4 199.4C-223.9 166.6 -254.4 145.7 -276.2 114.4C-298.1 83.2 -311.3 41.6 -324.5 0L0 0Z" fill="#28f16b"></path></g><g transform="translate(0, 600)"><path d="M0 -324.5C48.4 -325.6 96.9 -326.7 124.2 -299.8C151.5 -272.9 157.6 -218 187.4 -187.4C217.2 -156.8 270.7 -150.4 297.5 -123.2C324.3 -96 324.4 -48 324.5 0L0 0Z" fill="#28f16b"></path></g></svg>